<mxfile host="app.diagrams.net" agent="Mozilla/5.0 (Macintosh; Intel Mac OS X 10_15_7) AppleWebKit/537.36 (KHTML, like Gecko) Chrome/127.0.0.0 Safari/537.36" version="24.7.16">
  <diagram name="Page-1" id="6nQOO2kUKiAGOIX3zdvE">
    <mxGraphModel dx="1193" dy="758" grid="1" gridSize="10" guides="1" tooltips="1" connect="1" arrows="1" fold="1" page="1" pageScale="1" pageWidth="1169" pageHeight="827" math="0" shadow="0">
      <root>
        <mxCell id="0" />
        <mxCell id="1" parent="0" />
        <mxCell id="HC83YzD3zrTE_xd1Wi6--2" value="&lt;u&gt;A1&lt;/u&gt;" style="rounded=0;whiteSpace=wrap;html=1;" vertex="1" parent="1">
          <mxGeometry x="320" y="80" width="80" height="40" as="geometry" />
        </mxCell>
        <mxCell id="HC83YzD3zrTE_xd1Wi6--3" value="E1" style="text;html=1;align=center;verticalAlign=middle;whiteSpace=wrap;rounded=0;" vertex="1" parent="1">
          <mxGeometry x="300" y="50" width="60" height="30" as="geometry" />
        </mxCell>
        <mxCell id="HC83YzD3zrTE_xd1Wi6--4" value="&lt;u&gt;A4&lt;/u&gt;" style="rounded=0;whiteSpace=wrap;html=1;" vertex="1" parent="1">
          <mxGeometry x="320" y="150" width="80" height="40" as="geometry" />
        </mxCell>
        <mxCell id="HC83YzD3zrTE_xd1Wi6--5" value="E2" style="text;html=1;align=center;verticalAlign=middle;whiteSpace=wrap;rounded=0;" vertex="1" parent="1">
          <mxGeometry x="300" y="120" width="60" height="30" as="geometry" />
        </mxCell>
        <mxCell id="HC83YzD3zrTE_xd1Wi6--7" value="&lt;u&gt;A11&lt;/u&gt;" style="rounded=0;whiteSpace=wrap;html=1;" vertex="1" parent="1">
          <mxGeometry x="320" y="220" width="80" height="40" as="geometry" />
        </mxCell>
        <mxCell id="HC83YzD3zrTE_xd1Wi6--8" value="E4" style="text;html=1;align=center;verticalAlign=middle;whiteSpace=wrap;rounded=0;" vertex="1" parent="1">
          <mxGeometry x="300" y="190" width="60" height="30" as="geometry" />
        </mxCell>
        <mxCell id="HC83YzD3zrTE_xd1Wi6--9" value="&lt;u&gt;A13&lt;/u&gt;" style="rounded=0;whiteSpace=wrap;html=1;" vertex="1" parent="1">
          <mxGeometry x="320" y="290" width="80" height="40" as="geometry" />
        </mxCell>
        <mxCell id="HC83YzD3zrTE_xd1Wi6--10" value="E5" style="text;html=1;align=center;verticalAlign=middle;whiteSpace=wrap;rounded=0;" vertex="1" parent="1">
          <mxGeometry x="300" y="260" width="60" height="30" as="geometry" />
        </mxCell>
        <mxCell id="HC83YzD3zrTE_xd1Wi6--11" value="A3" style="rounded=0;whiteSpace=wrap;html=1;" vertex="1" parent="1">
          <mxGeometry x="400" y="80" width="80" height="40" as="geometry" />
        </mxCell>
        <mxCell id="HC83YzD3zrTE_xd1Wi6--12" value="A6" style="rounded=0;whiteSpace=wrap;html=1;" vertex="1" parent="1">
          <mxGeometry x="400" y="150" width="80" height="40" as="geometry" />
        </mxCell>
        <mxCell id="HC83YzD3zrTE_xd1Wi6--13" value="A12" style="rounded=0;whiteSpace=wrap;html=1;" vertex="1" parent="1">
          <mxGeometry x="400" y="220" width="80" height="40" as="geometry" />
        </mxCell>
        <mxCell id="HC83YzD3zrTE_xd1Wi6--14" value="A14" style="rounded=0;whiteSpace=wrap;html=1;" vertex="1" parent="1">
          <mxGeometry x="400" y="290" width="80" height="40" as="geometry" />
        </mxCell>
        <mxCell id="HC83YzD3zrTE_xd1Wi6--15" value="E3" style="text;html=1;align=center;verticalAlign=middle;whiteSpace=wrap;rounded=0;" vertex="1" parent="1">
          <mxGeometry x="300" y="330" width="60" height="30" as="geometry" />
        </mxCell>
        <mxCell id="HC83YzD3zrTE_xd1Wi6--68" style="edgeStyle=orthogonalEdgeStyle;rounded=0;orthogonalLoop=1;jettySize=auto;html=1;exitX=0;exitY=0.5;exitDx=0;exitDy=0;" edge="1" parent="1" source="HC83YzD3zrTE_xd1Wi6--16">
          <mxGeometry relative="1" as="geometry">
            <mxPoint x="320" y="120" as="targetPoint" />
            <Array as="points">
              <mxPoint x="280" y="380" />
              <mxPoint x="280" y="120" />
            </Array>
          </mxGeometry>
        </mxCell>
        <mxCell id="HC83YzD3zrTE_xd1Wi6--16" value="&lt;u&gt;A1&lt;/u&gt;" style="rounded=0;whiteSpace=wrap;html=1;" vertex="1" parent="1">
          <mxGeometry x="320" y="360" width="80" height="40" as="geometry" />
        </mxCell>
        <mxCell id="HC83YzD3zrTE_xd1Wi6--17" value="&lt;u&gt;A7&lt;/u&gt;" style="rounded=0;whiteSpace=wrap;html=1;" vertex="1" parent="1">
          <mxGeometry x="400" y="360" width="80" height="40" as="geometry" />
        </mxCell>
        <mxCell id="HC83YzD3zrTE_xd1Wi6--18" value="A9" style="rounded=0;whiteSpace=wrap;html=1;" vertex="1" parent="1">
          <mxGeometry x="480" y="360" width="80" height="40" as="geometry" />
        </mxCell>
        <mxCell id="HC83YzD3zrTE_xd1Wi6--19" value="A10" style="rounded=0;whiteSpace=wrap;html=1;" vertex="1" parent="1">
          <mxGeometry x="560" y="360" width="80" height="40" as="geometry" />
        </mxCell>
        <mxCell id="HC83YzD3zrTE_xd1Wi6--21" value="" style="line;strokeWidth=2;html=1;" vertex="1" parent="1">
          <mxGeometry x="350" y="381" width="100" height="10" as="geometry" />
        </mxCell>
        <mxCell id="HC83YzD3zrTE_xd1Wi6--49" value="A2Name" style="rounded=0;whiteSpace=wrap;html=1;" vertex="1" parent="1">
          <mxGeometry x="400" y="430" width="80" height="40" as="geometry" />
        </mxCell>
        <mxCell id="HC83YzD3zrTE_xd1Wi6--50" value="A2" style="text;html=1;align=center;verticalAlign=middle;whiteSpace=wrap;rounded=0;" vertex="1" parent="1">
          <mxGeometry x="300" y="400" width="60" height="30" as="geometry" />
        </mxCell>
        <mxCell id="HC83YzD3zrTE_xd1Wi6--56" style="edgeStyle=orthogonalEdgeStyle;rounded=0;orthogonalLoop=1;jettySize=auto;html=1;exitX=0;exitY=0.5;exitDx=0;exitDy=0;" edge="1" parent="1" source="HC83YzD3zrTE_xd1Wi6--54">
          <mxGeometry relative="1" as="geometry">
            <mxPoint x="320" y="100" as="targetPoint" />
            <Array as="points">
              <mxPoint x="270" y="450" />
              <mxPoint x="270" y="100" />
              <mxPoint x="320" y="100" />
            </Array>
          </mxGeometry>
        </mxCell>
        <mxCell id="HC83YzD3zrTE_xd1Wi6--54" value="A1" style="rounded=0;whiteSpace=wrap;html=1;" vertex="1" parent="1">
          <mxGeometry x="320" y="430" width="80" height="40" as="geometry" />
        </mxCell>
        <mxCell id="HC83YzD3zrTE_xd1Wi6--55" value="" style="line;strokeWidth=2;html=1;" vertex="1" parent="1">
          <mxGeometry x="350" y="452" width="120" height="10" as="geometry" />
        </mxCell>
        <mxCell id="HC83YzD3zrTE_xd1Wi6--57" value="R1" style="text;html=1;align=center;verticalAlign=middle;whiteSpace=wrap;rounded=0;" vertex="1" parent="1">
          <mxGeometry x="310" y="470" width="60" height="30" as="geometry" />
        </mxCell>
        <mxCell id="HC83YzD3zrTE_xd1Wi6--66" style="edgeStyle=orthogonalEdgeStyle;rounded=0;orthogonalLoop=1;jettySize=auto;html=1;exitX=0;exitY=0.5;exitDx=0;exitDy=0;entryX=0;entryY=0;entryDx=0;entryDy=0;" edge="1" parent="1" source="HC83YzD3zrTE_xd1Wi6--58" target="HC83YzD3zrTE_xd1Wi6--2">
          <mxGeometry relative="1" as="geometry">
            <mxPoint x="282" y="522" as="sourcePoint" />
            <mxPoint x="280" y="91" as="targetPoint" />
            <Array as="points">
              <mxPoint x="260" y="522" />
              <mxPoint x="260" y="80" />
            </Array>
          </mxGeometry>
        </mxCell>
        <mxCell id="HC83YzD3zrTE_xd1Wi6--58" value="&lt;u&gt;A1&lt;/u&gt;" style="rounded=0;whiteSpace=wrap;html=1;" vertex="1" parent="1">
          <mxGeometry x="322" y="501" width="80" height="40" as="geometry" />
        </mxCell>
        <mxCell id="HC83YzD3zrTE_xd1Wi6--63" style="edgeStyle=orthogonalEdgeStyle;rounded=0;orthogonalLoop=1;jettySize=auto;html=1;exitX=0.5;exitY=0;exitDx=0;exitDy=0;" edge="1" parent="1" source="HC83YzD3zrTE_xd1Wi6--59">
          <mxGeometry relative="1" as="geometry">
            <mxPoint x="360" y="150" as="targetPoint" />
            <Array as="points">
              <mxPoint x="442" y="490" />
              <mxPoint x="770" y="490" />
              <mxPoint x="770" y="130" />
              <mxPoint x="360" y="130" />
            </Array>
          </mxGeometry>
        </mxCell>
        <mxCell id="HC83YzD3zrTE_xd1Wi6--59" value="&lt;u&gt;A4&lt;/u&gt;" style="rounded=0;whiteSpace=wrap;html=1;" vertex="1" parent="1">
          <mxGeometry x="402" y="501" width="80" height="40" as="geometry" />
        </mxCell>
        <mxCell id="HC83YzD3zrTE_xd1Wi6--60" value="" style="line;strokeWidth=2;html=1;" vertex="1" parent="1">
          <mxGeometry x="350" y="522" width="112" height="10" as="geometry" />
        </mxCell>
        <mxCell id="HC83YzD3zrTE_xd1Wi6--61" value="A15" style="rounded=0;whiteSpace=wrap;html=1;" vertex="1" parent="1">
          <mxGeometry x="480" y="501" width="80" height="40" as="geometry" />
        </mxCell>
        <mxCell id="HC83YzD3zrTE_xd1Wi6--70" style="edgeStyle=orthogonalEdgeStyle;rounded=0;orthogonalLoop=1;jettySize=auto;html=1;exitX=1;exitY=0.5;exitDx=0;exitDy=0;" edge="1" parent="1" source="HC83YzD3zrTE_xd1Wi6--69">
          <mxGeometry relative="1" as="geometry">
            <mxPoint x="360" y="190" as="targetPoint" />
            <Array as="points">
              <mxPoint x="710" y="310" />
              <mxPoint x="710" y="210" />
              <mxPoint x="360" y="210" />
            </Array>
          </mxGeometry>
        </mxCell>
        <mxCell id="HC83YzD3zrTE_xd1Wi6--69" value="A4" style="rounded=0;whiteSpace=wrap;html=1;" vertex="1" parent="1">
          <mxGeometry x="480" y="290" width="80" height="40" as="geometry" />
        </mxCell>
        <mxCell id="HC83YzD3zrTE_xd1Wi6--72" style="edgeStyle=orthogonalEdgeStyle;rounded=0;orthogonalLoop=1;jettySize=auto;html=1;exitX=0.25;exitY=0;exitDx=0;exitDy=0;entryX=0.5;entryY=1;entryDx=0;entryDy=0;" edge="1" parent="1" source="HC83YzD3zrTE_xd1Wi6--71" target="HC83YzD3zrTE_xd1Wi6--7">
          <mxGeometry relative="1" as="geometry">
            <Array as="points">
              <mxPoint x="660" y="280" />
              <mxPoint x="360" y="280" />
            </Array>
          </mxGeometry>
        </mxCell>
        <mxCell id="HC83YzD3zrTE_xd1Wi6--71" value="A11" style="rounded=0;whiteSpace=wrap;html=1;" vertex="1" parent="1">
          <mxGeometry x="640" y="360" width="80" height="40" as="geometry" />
        </mxCell>
      </root>
    </mxGraphModel>
  </diagram>
</mxfile>
